<svg width="2000" height="250" viewBox="0 0 2000 250" fill="none" xmlns="http://www.w3.org/2000/svg">
<rect width="2000" height="250" rx="48" fill="#FDE200"/>
<path d="M336.466 90.1818V160H323.716L293.341 116.057H292.83V160H278.068V90.1818H291.023L321.159 134.091H321.773V90.1818H336.466ZM372.048 161.023C366.753 161.023 362.173 159.898 358.31 157.648C354.469 155.375 351.503 152.216 349.412 148.17C347.321 144.102 346.276 139.386 346.276 134.023C346.276 128.614 347.321 123.886 349.412 119.841C351.503 115.773 354.469 112.614 358.31 110.364C362.173 108.091 366.753 106.955 372.048 106.955C377.344 106.955 381.912 108.091 385.753 110.364C389.616 112.614 392.594 115.773 394.685 119.841C396.776 123.886 397.821 128.614 397.821 134.023C397.821 139.386 396.776 144.102 394.685 148.17C392.594 152.216 389.616 155.375 385.753 157.648C381.912 159.898 377.344 161.023 372.048 161.023ZM372.116 149.773C374.526 149.773 376.537 149.091 378.151 147.727C379.764 146.341 380.98 144.455 381.798 142.068C382.639 139.682 383.06 136.966 383.06 133.92C383.06 130.875 382.639 128.159 381.798 125.773C380.98 123.386 379.764 121.5 378.151 120.114C376.537 118.727 374.526 118.034 372.116 118.034C369.685 118.034 367.639 118.727 365.98 120.114C364.344 121.5 363.105 123.386 362.264 125.773C361.446 128.159 361.037 130.875 361.037 133.92C361.037 136.966 361.446 139.682 362.264 142.068C363.105 144.455 364.344 146.341 365.98 147.727C367.639 149.091 369.685 149.773 372.116 149.773ZM432.287 160H407.537V90.1818H432.491C439.514 90.1818 445.56 91.5795 450.628 94.375C455.696 97.1477 459.594 101.136 462.321 106.341C465.071 111.545 466.446 117.773 466.446 125.023C466.446 132.295 465.071 138.545 462.321 143.773C459.594 149 455.673 153.011 450.56 155.807C445.469 158.602 439.378 160 432.287 160ZM422.298 147.352H431.673C436.037 147.352 439.707 146.58 442.685 145.034C445.685 143.466 447.935 141.045 449.435 137.773C450.957 134.477 451.719 130.227 451.719 125.023C451.719 119.864 450.957 115.648 449.435 112.375C447.935 109.102 445.696 106.693 442.719 105.148C439.741 103.602 436.071 102.83 431.707 102.83H422.298V147.352ZM500.767 161.023C495.472 161.023 490.892 159.898 487.028 157.648C483.188 155.375 480.222 152.216 478.131 148.17C476.04 144.102 474.994 139.386 474.994 134.023C474.994 128.614 476.04 123.886 478.131 119.841C480.222 115.773 483.188 112.614 487.028 110.364C490.892 108.091 495.472 106.955 500.767 106.955C506.062 106.955 510.631 108.091 514.472 110.364C518.335 112.614 521.312 115.773 523.403 119.841C525.494 123.886 526.54 128.614 526.54 134.023C526.54 139.386 525.494 144.102 523.403 148.17C521.312 152.216 518.335 155.375 514.472 157.648C510.631 159.898 506.062 161.023 500.767 161.023ZM500.835 149.773C503.244 149.773 505.256 149.091 506.869 147.727C508.483 146.341 509.699 144.455 510.517 142.068C511.358 139.682 511.778 136.966 511.778 133.92C511.778 130.875 511.358 128.159 510.517 125.773C509.699 123.386 508.483 121.5 506.869 120.114C505.256 118.727 503.244 118.034 500.835 118.034C498.403 118.034 496.358 118.727 494.699 120.114C493.063 121.5 491.824 123.386 490.983 125.773C490.165 128.159 489.756 130.875 489.756 133.92C489.756 136.966 490.165 139.682 490.983 142.068C491.824 144.455 493.063 146.341 494.699 147.727C496.358 149.091 498.403 149.773 500.835 149.773ZM546.244 107.636L555.858 125.943L565.71 107.636H580.608L565.438 133.818L581.017 160H566.188L555.858 141.898L545.699 160H530.699L546.244 133.818L531.244 107.636H546.244Z" fill="black"/>
<path d="M618.023 160V136.727H622.864V145.477H623.011C623.223 145.008 623.53 144.53 623.932 144.045C624.341 143.553 624.871 143.144 625.523 142.818C626.182 142.485 627 142.318 627.977 142.318C629.25 142.318 630.424 142.652 631.5 143.318C632.576 143.977 633.436 144.973 634.08 146.307C634.723 147.633 635.045 149.295 635.045 151.295C635.045 153.242 634.731 154.886 634.102 156.227C633.481 157.561 632.633 158.572 631.557 159.261C630.489 159.943 629.292 160.284 627.966 160.284C627.027 160.284 626.227 160.129 625.568 159.818C624.917 159.508 624.383 159.117 623.966 158.648C623.549 158.17 623.231 157.689 623.011 157.205H622.795V160H618.023ZM622.761 151.273C622.761 152.311 622.905 153.216 623.193 153.989C623.481 154.761 623.898 155.364 624.443 155.795C624.989 156.22 625.652 156.432 626.432 156.432C627.22 156.432 627.886 156.216 628.432 155.784C628.977 155.345 629.39 154.739 629.67 153.966C629.958 153.186 630.102 152.288 630.102 151.273C630.102 150.265 629.962 149.379 629.682 148.614C629.402 147.848 628.989 147.25 628.443 146.818C627.898 146.386 627.227 146.17 626.432 146.17C625.644 146.17 624.977 146.379 624.432 146.795C623.894 147.212 623.481 147.803 623.193 148.568C622.905 149.333 622.761 150.235 622.761 151.273ZM640.702 166.545C640.088 166.545 639.512 166.496 638.974 166.398C638.444 166.307 638.005 166.189 637.656 166.045L638.747 162.432C639.315 162.606 639.827 162.701 640.281 162.716C640.743 162.731 641.141 162.625 641.474 162.398C641.815 162.17 642.092 161.784 642.304 161.239L642.588 160.5L636.327 142.545H641.418L645.031 155.364H645.213L648.861 142.545H653.986L647.202 161.886C646.876 162.826 646.433 163.644 645.872 164.341C645.319 165.045 644.618 165.587 643.77 165.966C642.921 166.352 641.899 166.545 640.702 166.545ZM704.688 152.568V142.545H709.528V160H704.881V156.83H704.699C704.305 157.852 703.65 158.674 702.733 159.295C701.824 159.917 700.714 160.227 699.403 160.227C698.237 160.227 697.21 159.962 696.324 159.432C695.438 158.902 694.744 158.148 694.244 157.17C693.752 156.193 693.502 155.023 693.494 153.659V142.545H698.335V152.795C698.343 153.826 698.619 154.64 699.165 155.239C699.71 155.837 700.441 156.136 701.358 156.136C701.941 156.136 702.487 156.004 702.994 155.739C703.502 155.466 703.911 155.064 704.222 154.534C704.54 154.004 704.695 153.348 704.688 152.568ZM713.401 160V142.545H718.241V160H713.401ZM715.832 140.295C715.113 140.295 714.495 140.057 713.98 139.58C713.473 139.095 713.219 138.515 713.219 137.841C713.219 137.174 713.473 136.602 713.98 136.125C714.495 135.64 715.113 135.398 715.832 135.398C716.552 135.398 717.166 135.64 717.673 136.125C718.188 136.602 718.446 137.174 718.446 137.841C718.446 138.515 718.188 139.095 717.673 139.58C717.166 140.057 716.552 140.295 715.832 140.295ZM726.96 136.727V160H722.119V136.727H726.96ZM737.27 160.284C735.944 160.284 734.743 159.943 733.668 159.261C732.599 158.572 731.751 157.561 731.122 156.227C730.501 154.886 730.19 153.242 730.19 151.295C730.19 149.295 730.512 147.633 731.156 146.307C731.8 144.973 732.656 143.977 733.724 143.318C734.8 142.652 735.978 142.318 737.259 142.318C738.236 142.318 739.05 142.485 739.702 142.818C740.361 143.144 740.891 143.553 741.293 144.045C741.702 144.53 742.012 145.008 742.224 145.477H742.372V136.727H747.202V160H742.429V157.205H742.224C741.997 157.689 741.675 158.17 741.259 158.648C740.849 159.117 740.315 159.508 739.656 159.818C739.005 160.129 738.209 160.284 737.27 160.284ZM738.804 156.432C739.584 156.432 740.243 156.22 740.781 155.795C741.327 155.364 741.743 154.761 742.031 153.989C742.327 153.216 742.474 152.311 742.474 151.273C742.474 150.235 742.33 149.333 742.043 148.568C741.755 147.803 741.338 147.212 740.793 146.795C740.247 146.379 739.584 146.17 738.804 146.17C738.009 146.17 737.338 146.386 736.793 146.818C736.247 147.25 735.834 147.848 735.554 148.614C735.274 149.379 735.134 150.265 735.134 151.273C735.134 152.288 735.274 153.186 735.554 153.966C735.842 154.739 736.255 155.345 736.793 155.784C737.338 156.216 738.009 156.432 738.804 156.432ZM759.136 160.341C757.341 160.341 755.795 159.977 754.5 159.25C753.212 158.515 752.22 157.477 751.523 156.136C750.826 154.788 750.477 153.193 750.477 151.352C750.477 149.557 750.826 147.981 751.523 146.625C752.22 145.269 753.201 144.212 754.466 143.455C755.739 142.697 757.231 142.318 758.943 142.318C760.095 142.318 761.167 142.504 762.159 142.875C763.159 143.239 764.03 143.788 764.773 144.523C765.523 145.258 766.106 146.182 766.523 147.295C766.939 148.402 767.148 149.697 767.148 151.182V152.511H752.409V149.511H762.591C762.591 148.814 762.439 148.197 762.136 147.659C761.833 147.121 761.413 146.701 760.875 146.398C760.345 146.087 759.727 145.932 759.023 145.932C758.288 145.932 757.636 146.102 757.068 146.443C756.508 146.777 756.068 147.227 755.75 147.795C755.432 148.356 755.269 148.981 755.261 149.67V152.523C755.261 153.386 755.42 154.133 755.739 154.761C756.064 155.39 756.523 155.875 757.114 156.216C757.705 156.557 758.405 156.727 759.216 156.727C759.754 156.727 760.246 156.652 760.693 156.5C761.14 156.348 761.523 156.121 761.841 155.818C762.159 155.515 762.402 155.144 762.568 154.705L767.045 155C766.818 156.076 766.352 157.015 765.648 157.818C764.951 158.614 764.049 159.235 762.943 159.682C761.845 160.121 760.576 160.341 759.136 160.341ZM770.307 160V142.545H775V145.591H775.182C775.5 144.508 776.034 143.689 776.784 143.136C777.534 142.576 778.398 142.295 779.375 142.295C779.617 142.295 779.879 142.311 780.159 142.341C780.439 142.371 780.686 142.413 780.898 142.466V146.761C780.67 146.693 780.356 146.633 779.955 146.58C779.553 146.527 779.186 146.5 778.852 146.5C778.14 146.5 777.504 146.655 776.943 146.966C776.39 147.269 775.951 147.693 775.625 148.239C775.307 148.784 775.148 149.413 775.148 150.125V160H770.307ZM784.23 160.295C783.48 160.295 782.836 160.03 782.298 159.5C781.768 158.962 781.503 158.318 781.503 157.568C781.503 156.826 781.768 156.189 782.298 155.659C782.836 155.129 783.48 154.864 784.23 154.864C784.957 154.864 785.594 155.129 786.139 155.659C786.685 156.189 786.957 156.826 786.957 157.568C786.957 158.068 786.829 158.527 786.571 158.943C786.321 159.352 785.991 159.682 785.582 159.932C785.173 160.174 784.723 160.295 784.23 160.295ZM798.795 166.909C797.227 166.909 795.883 166.693 794.761 166.261C793.648 165.837 792.761 165.258 792.102 164.523C791.443 163.788 791.015 162.962 790.818 162.045L795.295 161.443C795.432 161.792 795.648 162.117 795.943 162.42C796.239 162.723 796.629 162.966 797.114 163.148C797.606 163.337 798.205 163.432 798.909 163.432C799.962 163.432 800.83 163.174 801.511 162.659C802.201 162.152 802.545 161.299 802.545 160.102V156.909H802.341C802.129 157.394 801.811 157.852 801.386 158.284C800.962 158.716 800.417 159.068 799.75 159.341C799.083 159.614 798.288 159.75 797.364 159.75C796.053 159.75 794.86 159.447 793.784 158.841C792.716 158.227 791.864 157.292 791.227 156.034C790.598 154.769 790.284 153.17 790.284 151.239C790.284 149.261 790.606 147.61 791.25 146.284C791.894 144.958 792.75 143.966 793.818 143.307C794.894 142.648 796.072 142.318 797.352 142.318C798.33 142.318 799.148 142.485 799.807 142.818C800.466 143.144 800.996 143.553 801.398 144.045C801.807 144.53 802.121 145.008 802.341 145.477H802.523V142.545H807.33V160.17C807.33 161.655 806.966 162.898 806.239 163.898C805.511 164.898 804.504 165.648 803.216 166.148C801.936 166.655 800.462 166.909 798.795 166.909ZM798.898 156.114C799.678 156.114 800.337 155.92 800.875 155.534C801.42 155.14 801.837 154.58 802.125 153.852C802.42 153.117 802.568 152.239 802.568 151.216C802.568 150.193 802.424 149.307 802.136 148.557C801.848 147.799 801.432 147.212 800.886 146.795C800.341 146.379 799.678 146.17 798.898 146.17C798.102 146.17 797.432 146.386 796.886 146.818C796.341 147.242 795.928 147.833 795.648 148.591C795.367 149.348 795.227 150.223 795.227 151.216C795.227 152.223 795.367 153.095 795.648 153.83C795.936 154.557 796.348 155.121 796.886 155.523C797.432 155.917 798.102 156.114 798.898 156.114ZM811.182 160V142.545H815.875V145.591H816.057C816.375 144.508 816.909 143.689 817.659 143.136C818.409 142.576 819.273 142.295 820.25 142.295C820.492 142.295 820.754 142.311 821.034 142.341C821.314 142.371 821.561 142.413 821.773 142.466V146.761C821.545 146.693 821.231 146.633 820.83 146.58C820.428 146.527 820.061 146.5 819.727 146.5C819.015 146.5 818.379 146.655 817.818 146.966C817.265 147.269 816.826 147.693 816.5 148.239C816.182 148.784 816.023 149.413 816.023 150.125V160H811.182ZM831.349 160.341C829.584 160.341 828.058 159.966 826.77 159.216C825.49 158.458 824.501 157.405 823.804 156.057C823.107 154.701 822.759 153.129 822.759 151.341C822.759 149.538 823.107 147.962 823.804 146.614C824.501 145.258 825.49 144.205 826.77 143.455C828.058 142.697 829.584 142.318 831.349 142.318C833.115 142.318 834.637 142.697 835.918 143.455C837.205 144.205 838.198 145.258 838.895 146.614C839.592 147.962 839.94 149.538 839.94 151.341C839.94 153.129 839.592 154.701 838.895 156.057C838.198 157.405 837.205 158.458 835.918 159.216C834.637 159.966 833.115 160.341 831.349 160.341ZM831.372 156.591C832.175 156.591 832.846 156.364 833.384 155.909C833.921 155.447 834.327 154.818 834.599 154.023C834.88 153.227 835.02 152.322 835.02 151.307C835.02 150.292 834.88 149.386 834.599 148.591C834.327 147.795 833.921 147.167 833.384 146.705C832.846 146.242 832.175 146.011 831.372 146.011C830.562 146.011 829.88 146.242 829.327 146.705C828.781 147.167 828.368 147.795 828.088 148.591C827.815 149.386 827.679 150.292 827.679 151.307C827.679 152.322 827.815 153.227 828.088 154.023C828.368 154.818 828.781 155.447 829.327 155.909C829.88 156.364 830.562 156.591 831.372 156.591ZM854.281 152.568V142.545H859.122V160H854.474V156.83H854.293C853.899 157.852 853.243 158.674 852.327 159.295C851.418 159.917 850.308 160.227 848.997 160.227C847.83 160.227 846.804 159.962 845.918 159.432C845.031 158.902 844.338 158.148 843.838 157.17C843.346 156.193 843.096 155.023 843.088 153.659V142.545H847.929V152.795C847.937 153.826 848.213 154.64 848.759 155.239C849.304 155.837 850.035 156.136 850.952 156.136C851.535 156.136 852.08 156.004 852.588 155.739C853.096 155.466 853.505 155.064 853.815 154.534C854.134 154.004 854.289 153.348 854.281 152.568ZM862.994 166.545V142.545H867.767V145.477H867.983C868.195 145.008 868.502 144.53 868.903 144.045C869.313 143.553 869.843 143.144 870.494 142.818C871.153 142.485 871.972 142.318 872.949 142.318C874.222 142.318 875.396 142.652 876.472 143.318C877.547 143.977 878.407 144.973 879.051 146.307C879.695 147.633 880.017 149.295 880.017 151.295C880.017 153.242 879.703 154.886 879.074 156.227C878.453 157.561 877.604 158.572 876.528 159.261C875.46 159.943 874.263 160.284 872.938 160.284C871.998 160.284 871.199 160.129 870.54 159.818C869.888 159.508 869.354 159.117 868.938 158.648C868.521 158.17 868.203 157.689 867.983 157.205H867.835V166.545H862.994ZM867.733 151.273C867.733 152.311 867.877 153.216 868.165 153.989C868.453 154.761 868.869 155.364 869.415 155.795C869.96 156.22 870.623 156.432 871.403 156.432C872.191 156.432 872.858 156.216 873.403 155.784C873.949 155.345 874.362 154.739 874.642 153.966C874.93 153.186 875.074 152.288 875.074 151.273C875.074 150.265 874.934 149.379 874.653 148.614C874.373 147.848 873.96 147.25 873.415 146.818C872.869 146.386 872.199 146.17 871.403 146.17C870.616 146.17 869.949 146.379 869.403 146.795C868.866 147.212 868.453 147.803 868.165 148.568C867.877 149.333 867.733 150.235 867.733 151.273Z" fill="black"/>
<path fill-rule="evenodd" clip-rule="evenodd" d="M209.951 80.0837C211.616 78.4175 211.616 75.716 209.951 74.0498C208.284 72.3835 205.583 72.3835 203.916 74.0498L187.16 90.8064C178.829 87.4493 169.707 85.6001 160 85.6001C132.76 85.6001 110.135 100.161 96.6485 121.739C95.7838 123.122 95.7838 124.878 96.6485 126.261C103.705 137.552 113.264 146.921 124.677 153.289L110.05 167.916C108.383 169.583 108.383 172.284 110.05 173.951C111.716 175.616 114.417 175.616 116.084 173.951L132.84 157.194C141.171 160.551 150.293 162.4 160 162.4C187.239 162.4 209.865 147.839 223.351 126.261C224.216 124.878 224.216 123.122 223.351 121.739C216.295 110.448 206.736 101.079 195.323 94.7112L209.951 80.0837ZM180.517 97.4495C174.108 95.2948 167.233 94.1334 160 94.1334C136.984 94.1334 117.585 105.894 105.354 124C111.982 133.811 120.713 141.758 130.984 146.981L180.517 97.4495ZM139.483 150.551L189.016 101.019C199.287 106.242 208.019 114.189 214.646 124C202.415 142.106 183.015 153.867 160 153.867C152.767 153.867 145.892 152.705 139.483 150.551Z" fill="black"/>
<path d="M677.058 135.569C677.786 135.874 678.46 136.294 679.055 136.813C679.192 136.933 679.325 137.058 679.454 137.188C680.139 137.881 680.683 138.705 681.054 139.611C681.425 140.517 681.616 141.489 681.616 142.47C681.616 143.355 681.461 144.232 681.158 145.061H681.616C682.586 145.061 683.546 145.254 684.442 145.63C685.17 145.935 685.844 146.355 686.438 146.874C686.576 146.994 686.709 147.119 686.837 147.249C687.523 147.942 688.067 148.766 688.438 149.672C688.809 150.578 689 151.55 689 152.53C689 153.511 688.809 154.483 688.438 155.389C688.067 156.295 687.523 157.119 686.837 157.812C686.709 157.942 686.576 158.067 686.438 158.187C685.844 158.706 685.17 159.126 684.442 159.431C683.546 159.807 682.586 160 681.616 160H676.795C675.463 160 674.384 158.908 674.384 157.561C674.384 156.214 675.463 155.122 676.795 155.122H681.616L681.616 155.123C681.953 155.123 682.286 155.056 682.597 154.925C682.908 154.795 683.19 154.604 683.428 154.363C683.666 154.123 683.855 153.837 683.984 153.522C684.112 153.208 684.179 152.871 684.179 152.53C684.179 152.19 684.112 151.853 683.984 151.539C683.855 151.224 683.666 150.938 683.428 150.698C683.19 150.457 682.908 150.266 682.597 150.136C682.286 150.005 681.953 149.938 681.616 149.938V149.939H669.411C668.079 149.939 667 148.847 667 147.5C667 146.153 668.079 145.061 669.411 145.061H674.288C674.606 145.054 674.92 144.987 675.213 144.864C675.524 144.734 675.807 144.543 676.045 144.302C676.283 144.062 676.471 143.776 676.6 143.461C676.729 143.147 676.795 142.81 676.795 142.47C676.795 142.129 676.729 141.792 676.6 141.478C676.471 141.163 676.283 140.877 676.045 140.637C675.807 140.396 675.524 140.205 675.213 140.075C674.903 139.944 674.569 139.877 674.233 139.877V139.878H669.411C668.079 139.878 667 138.786 667 137.439C667 136.092 668.079 135 669.411 135H674.233C675.203 135 676.163 135.193 677.058 135.569Z" fill="black"/>
<path d="M667 157.561C667 156.214 668.079 155.122 669.411 155.122H670.767C672.099 155.122 673.178 156.214 673.178 157.561C673.178 158.908 672.099 160 670.767 160H669.411C668.079 160 667 158.908 667 157.561Z" fill="black"/>
</svg>
