<svg width="2000" height="250" viewBox="0 0 2000 250" fill="none" xmlns="http://www.w3.org/2000/svg">
<rect width="2000" height="250" rx="48" fill="#FDE200"/>
<path d="M336.466 90.1818V160H323.716L293.341 116.057H292.83V160H278.068V90.1818H291.023L321.159 134.091H321.773V90.1818H336.466ZM372.048 161.023C366.753 161.023 362.173 159.898 358.31 157.648C354.469 155.375 351.503 152.216 349.412 148.17C347.321 144.102 346.276 139.386 346.276 134.023C346.276 128.614 347.321 123.886 349.412 119.841C351.503 115.773 354.469 112.614 358.31 110.364C362.173 108.091 366.753 106.955 372.048 106.955C377.344 106.955 381.912 108.091 385.753 110.364C389.616 112.614 392.594 115.773 394.685 119.841C396.776 123.886 397.821 128.614 397.821 134.023C397.821 139.386 396.776 144.102 394.685 148.17C392.594 152.216 389.616 155.375 385.753 157.648C381.912 159.898 377.344 161.023 372.048 161.023ZM372.116 149.773C374.526 149.773 376.537 149.091 378.151 147.727C379.764 146.341 380.98 144.455 381.798 142.068C382.639 139.682 383.06 136.966 383.06 133.92C383.06 130.875 382.639 128.159 381.798 125.773C380.98 123.386 379.764 121.5 378.151 120.114C376.537 118.727 374.526 118.034 372.116 118.034C369.685 118.034 367.639 118.727 365.98 120.114C364.344 121.5 363.105 123.386 362.264 125.773C361.446 128.159 361.037 130.875 361.037 133.92C361.037 136.966 361.446 139.682 362.264 142.068C363.105 144.455 364.344 146.341 365.98 147.727C367.639 149.091 369.685 149.773 372.116 149.773ZM432.287 160H407.537V90.1818H432.491C439.514 90.1818 445.56 91.5795 450.628 94.375C455.696 97.1477 459.594 101.136 462.321 106.341C465.071 111.545 466.446 117.773 466.446 125.023C466.446 132.295 465.071 138.545 462.321 143.773C459.594 149 455.673 153.011 450.56 155.807C445.469 158.602 439.378 160 432.287 160ZM422.298 147.352H431.673C436.037 147.352 439.707 146.58 442.685 145.034C445.685 143.466 447.935 141.045 449.435 137.773C450.957 134.477 451.719 130.227 451.719 125.023C451.719 119.864 450.957 115.648 449.435 112.375C447.935 109.102 445.696 106.693 442.719 105.148C439.741 103.602 436.071 102.83 431.707 102.83H422.298V147.352ZM500.767 161.023C495.472 161.023 490.892 159.898 487.028 157.648C483.188 155.375 480.222 152.216 478.131 148.17C476.04 144.102 474.994 139.386 474.994 134.023C474.994 128.614 476.04 123.886 478.131 119.841C480.222 115.773 483.188 112.614 487.028 110.364C490.892 108.091 495.472 106.955 500.767 106.955C506.062 106.955 510.631 108.091 514.472 110.364C518.335 112.614 521.312 115.773 523.403 119.841C525.494 123.886 526.54 128.614 526.54 134.023C526.54 139.386 525.494 144.102 523.403 148.17C521.312 152.216 518.335 155.375 514.472 157.648C510.631 159.898 506.062 161.023 500.767 161.023ZM500.835 149.773C503.244 149.773 505.256 149.091 506.869 147.727C508.483 146.341 509.699 144.455 510.517 142.068C511.358 139.682 511.778 136.966 511.778 133.92C511.778 130.875 511.358 128.159 510.517 125.773C509.699 123.386 508.483 121.5 506.869 120.114C505.256 118.727 503.244 118.034 500.835 118.034C498.403 118.034 496.358 118.727 494.699 120.114C493.063 121.5 491.824 123.386 490.983 125.773C490.165 128.159 489.756 130.875 489.756 133.92C489.756 136.966 490.165 139.682 490.983 142.068C491.824 144.455 493.063 146.341 494.699 147.727C496.358 149.091 498.403 149.773 500.835 149.773ZM546.244 107.636L555.858 125.943L565.71 107.636H580.608L565.438 133.818L581.017 160H566.188L555.858 141.898L545.699 160H530.699L546.244 133.818L531.244 107.636H546.244Z" fill="black"/>
<path fill-rule="evenodd" clip-rule="evenodd" d="M209.951 80.0837C211.616 78.4175 211.616 75.716 209.951 74.0498C208.284 72.3835 205.583 72.3835 203.916 74.0498L187.16 90.8064C178.829 87.4493 169.707 85.6001 160 85.6001C132.76 85.6001 110.135 100.161 96.6485 121.739C95.7838 123.122 95.7838 124.878 96.6485 126.261C103.705 137.552 113.264 146.921 124.677 153.289L110.05 167.916C108.383 169.583 108.383 172.284 110.05 173.951C111.716 175.616 114.417 175.616 116.084 173.951L132.84 157.194C141.171 160.551 150.293 162.4 160 162.4C187.239 162.4 209.865 147.839 223.351 126.261C224.216 124.878 224.216 123.122 223.351 121.739C216.295 110.448 206.736 101.079 195.323 94.7112L209.951 80.0837ZM180.517 97.4495C174.108 95.2948 167.233 94.1334 160 94.1334C136.984 94.1334 117.585 105.894 105.354 124C111.982 133.811 120.713 141.758 130.984 146.981L180.517 97.4495ZM139.483 150.551L189.016 101.019C199.287 106.242 208.019 114.189 214.646 124C202.415 142.106 183.015 153.867 160 153.867C152.767 153.867 145.892 152.705 139.483 150.551Z" fill="black"/>
<path d="M618.427 160V132.073H624.236V142.573H624.414C624.668 142.009 625.036 141.436 625.518 140.855C626.009 140.264 626.645 139.773 627.427 139.382C628.218 138.982 629.2 138.782 630.373 138.782C631.9 138.782 633.309 139.182 634.6 139.982C635.891 140.773 636.923 141.968 637.695 143.568C638.468 145.159 638.855 147.155 638.855 149.555C638.855 151.891 638.477 153.864 637.723 155.473C636.977 157.073 635.959 158.286 634.668 159.114C633.386 159.932 631.95 160.341 630.359 160.341C629.232 160.341 628.273 160.155 627.482 159.782C626.7 159.409 626.059 158.941 625.559 158.377C625.059 157.805 624.677 157.227 624.414 156.645H624.155V160H618.427ZM624.114 149.527C624.114 150.773 624.286 151.859 624.632 152.786C624.977 153.714 625.477 154.436 626.132 154.955C626.786 155.464 627.582 155.718 628.518 155.718C629.464 155.718 630.264 155.459 630.918 154.941C631.573 154.414 632.068 153.686 632.405 152.759C632.75 151.823 632.923 150.745 632.923 149.527C632.923 148.318 632.755 147.255 632.418 146.336C632.082 145.418 631.586 144.7 630.932 144.182C630.277 143.664 629.473 143.405 628.518 143.405C627.573 143.405 626.773 143.655 626.118 144.155C625.473 144.655 624.977 145.364 624.632 146.282C624.286 147.2 624.114 148.282 624.114 149.527ZM645.642 167.855C644.906 167.855 644.215 167.795 643.569 167.677C642.933 167.568 642.406 167.427 641.988 167.255L643.297 162.918C643.978 163.127 644.592 163.241 645.138 163.259C645.692 163.277 646.169 163.15 646.569 162.877C646.978 162.605 647.31 162.141 647.565 161.486L647.906 160.6L640.392 139.055H646.501L650.838 154.436H651.056L655.433 139.055H661.583L653.442 162.264C653.051 163.391 652.519 164.373 651.847 165.209C651.183 166.055 650.342 166.705 649.324 167.159C648.306 167.623 647.078 167.855 645.642 167.855ZM722.425 151.082V139.055H728.234V160H722.657V156.195H722.439C721.966 157.423 721.18 158.409 720.08 159.155C718.989 159.9 717.657 160.273 716.084 160.273C714.684 160.273 713.452 159.955 712.389 159.318C711.325 158.682 710.493 157.777 709.893 156.605C709.302 155.432 709.002 154.027 708.993 152.391V139.055H714.802V151.355C714.811 152.591 715.143 153.568 715.798 154.286C716.452 155.005 717.33 155.364 718.43 155.364C719.13 155.364 719.784 155.205 720.393 154.886C721.002 154.559 721.493 154.077 721.866 153.441C722.248 152.805 722.434 152.018 722.425 151.082ZM732.881 160V139.055H738.69V160H732.881ZM735.799 136.355C734.935 136.355 734.194 136.068 733.576 135.495C732.967 134.914 732.663 134.218 732.663 133.409C732.663 132.609 732.967 131.923 733.576 131.35C734.194 130.768 734.935 130.477 735.799 130.477C736.663 130.477 737.399 130.768 738.008 131.35C738.626 131.923 738.935 132.609 738.935 133.409C738.935 134.218 738.626 134.914 738.008 135.495C737.399 136.068 736.663 136.355 735.799 136.355ZM749.152 132.073V160H743.343V132.073H749.152ZM761.524 160.341C759.933 160.341 758.492 159.932 757.201 159.114C755.919 158.286 754.901 157.073 754.147 155.473C753.401 153.864 753.028 151.891 753.028 149.555C753.028 147.155 753.415 145.159 754.188 143.568C754.96 141.968 755.988 140.773 757.269 139.982C758.56 139.182 759.974 138.782 761.51 138.782C762.683 138.782 763.66 138.982 764.442 139.382C765.233 139.773 765.869 140.264 766.351 140.855C766.842 141.436 767.215 142.009 767.469 142.573H767.647V132.073H773.442V160H767.715V156.645H767.469C767.197 157.227 766.81 157.805 766.31 158.377C765.819 158.941 765.178 159.409 764.388 159.782C763.606 160.155 762.651 160.341 761.524 160.341ZM763.365 155.718C764.301 155.718 765.092 155.464 765.738 154.955C766.392 154.436 766.892 153.714 767.238 152.786C767.592 151.859 767.769 150.773 767.769 149.527C767.769 148.282 767.597 147.2 767.251 146.282C766.906 145.364 766.406 144.655 765.751 144.155C765.097 143.655 764.301 143.405 763.365 143.405C762.41 143.405 761.606 143.664 760.951 144.182C760.297 144.7 759.801 145.418 759.465 146.336C759.128 147.255 758.96 148.318 758.96 149.527C758.96 150.745 759.128 151.823 759.465 152.759C759.81 153.686 760.306 154.414 760.951 154.941C761.606 155.459 762.41 155.718 763.365 155.718ZM787.764 160.409C785.609 160.409 783.755 159.973 782.2 159.1C780.655 158.218 779.464 156.973 778.627 155.364C777.791 153.745 777.373 151.832 777.373 149.623C777.373 147.468 777.791 145.577 778.627 143.95C779.464 142.323 780.641 141.055 782.159 140.145C783.686 139.236 785.477 138.782 787.532 138.782C788.914 138.782 790.2 139.005 791.391 139.45C792.591 139.886 793.636 140.545 794.527 141.427C795.427 142.309 796.127 143.418 796.627 144.755C797.127 146.082 797.377 147.636 797.377 149.418V151.014H779.691V147.414H791.909C791.909 146.577 791.727 145.836 791.364 145.191C791 144.545 790.495 144.041 789.85 143.677C789.214 143.305 788.473 143.118 787.627 143.118C786.745 143.118 785.964 143.323 785.282 143.732C784.609 144.132 784.082 144.673 783.7 145.355C783.318 146.027 783.123 146.777 783.114 147.605V151.027C783.114 152.064 783.305 152.959 783.686 153.714C784.077 154.468 784.627 155.05 785.336 155.459C786.045 155.868 786.886 156.073 787.859 156.073C788.505 156.073 789.095 155.982 789.632 155.8C790.168 155.618 790.627 155.345 791.009 154.982C791.391 154.618 791.682 154.173 791.882 153.645L797.255 154C796.982 155.291 796.423 156.418 795.577 157.382C794.741 158.336 793.659 159.082 792.332 159.618C791.014 160.145 789.491 160.409 787.764 160.409ZM801.168 160V139.055H806.8V142.709H807.018C807.4 141.409 808.041 140.427 808.941 139.764C809.841 139.091 810.877 138.755 812.05 138.755C812.341 138.755 812.655 138.773 812.991 138.809C813.327 138.845 813.623 138.895 813.877 138.959V144.114C813.605 144.032 813.227 143.959 812.745 143.895C812.264 143.832 811.823 143.8 811.423 143.8C810.568 143.8 809.805 143.986 809.132 144.359C808.468 144.723 807.941 145.232 807.55 145.886C807.168 146.541 806.977 147.295 806.977 148.15V160H801.168ZM817.876 160.355C816.976 160.355 816.203 160.036 815.558 159.4C814.922 158.755 814.603 157.982 814.603 157.082C814.603 156.191 814.922 155.427 815.558 154.791C816.203 154.155 816.976 153.836 817.876 153.836C818.749 153.836 819.513 154.155 820.167 154.791C820.822 155.427 821.149 156.191 821.149 157.082C821.149 157.682 820.994 158.232 820.685 158.732C820.385 159.223 819.99 159.618 819.499 159.918C819.008 160.209 818.467 160.355 817.876 160.355ZM835.355 168.291C833.473 168.291 831.859 168.032 830.514 167.514C829.177 167.005 828.114 166.309 827.323 165.427C826.532 164.545 826.018 163.555 825.782 162.455L831.155 161.732C831.318 162.15 831.577 162.541 831.932 162.905C832.286 163.268 832.755 163.559 833.336 163.777C833.927 164.005 834.645 164.118 835.491 164.118C836.755 164.118 837.795 163.809 838.614 163.191C839.441 162.582 839.855 161.559 839.855 160.123V156.291H839.609C839.355 156.873 838.973 157.423 838.464 157.941C837.955 158.459 837.3 158.882 836.5 159.209C835.7 159.536 834.745 159.7 833.636 159.7C832.064 159.7 830.632 159.336 829.341 158.609C828.059 157.873 827.036 156.75 826.273 155.241C825.518 153.723 825.141 151.805 825.141 149.486C825.141 147.114 825.527 145.132 826.3 143.541C827.073 141.95 828.1 140.759 829.382 139.968C830.673 139.177 832.086 138.782 833.623 138.782C834.795 138.782 835.777 138.982 836.568 139.382C837.359 139.773 837.995 140.264 838.477 140.855C838.968 141.436 839.345 142.009 839.609 142.573H839.827V139.055H845.595V160.205C845.595 161.986 845.159 163.477 844.286 164.677C843.414 165.877 842.205 166.777 840.659 167.377C839.123 167.986 837.355 168.291 835.355 168.291ZM835.477 155.336C836.414 155.336 837.205 155.105 837.85 154.641C838.505 154.168 839.005 153.495 839.35 152.623C839.705 151.741 839.882 150.686 839.882 149.459C839.882 148.232 839.709 147.168 839.364 146.268C839.018 145.359 838.518 144.655 837.864 144.155C837.209 143.655 836.414 143.405 835.477 143.405C834.523 143.405 833.718 143.664 833.064 144.182C832.409 144.691 831.914 145.4 831.577 146.309C831.241 147.218 831.073 148.268 831.073 149.459C831.073 150.668 831.241 151.714 831.577 152.595C831.923 153.468 832.418 154.145 833.064 154.627C833.718 155.1 834.523 155.336 835.477 155.336ZM850.218 160V139.055H855.85V142.709H856.068C856.45 141.409 857.091 140.427 857.991 139.764C858.891 139.091 859.927 138.755 861.1 138.755C861.391 138.755 861.705 138.773 862.041 138.809C862.377 138.845 862.673 138.895 862.927 138.959V144.114C862.655 144.032 862.277 143.959 861.795 143.895C861.314 143.832 860.873 143.8 860.473 143.8C859.618 143.8 858.855 143.986 858.182 144.359C857.518 144.723 856.991 145.232 856.6 145.886C856.218 146.541 856.027 147.295 856.027 148.15V160H850.218ZM874.419 160.409C872.301 160.409 870.469 159.959 868.924 159.059C867.388 158.15 866.201 156.886 865.365 155.268C864.528 153.641 864.11 151.755 864.11 149.609C864.11 147.445 864.528 145.555 865.365 143.936C866.201 142.309 867.388 141.045 868.924 140.145C870.469 139.236 872.301 138.782 874.419 138.782C876.538 138.782 878.365 139.236 879.901 140.145C881.447 141.045 882.638 142.309 883.474 143.936C884.31 145.555 884.728 147.445 884.728 149.609C884.728 151.755 884.31 153.641 883.474 155.268C882.638 156.886 881.447 158.15 879.901 159.059C878.365 159.959 876.538 160.409 874.419 160.409ZM874.447 155.909C875.41 155.909 876.215 155.636 876.86 155.091C877.506 154.536 877.992 153.782 878.319 152.827C878.656 151.873 878.824 150.786 878.824 149.568C878.824 148.35 878.656 147.264 878.319 146.309C877.992 145.355 877.506 144.6 876.86 144.045C876.215 143.491 875.41 143.214 874.447 143.214C873.474 143.214 872.656 143.491 871.992 144.045C871.338 144.6 870.842 145.355 870.506 146.309C870.178 147.264 870.015 148.35 870.015 149.568C870.015 150.786 870.178 151.873 870.506 152.827C870.842 153.782 871.338 154.536 871.992 155.091C872.656 155.636 873.474 155.909 874.447 155.909ZM901.938 151.082V139.055H907.747V160H902.169V156.195H901.951C901.478 157.423 900.692 158.409 899.592 159.155C898.501 159.9 897.169 160.273 895.597 160.273C894.197 160.273 892.965 159.955 891.901 159.318C890.838 158.682 890.006 157.777 889.406 156.605C888.815 155.432 888.515 154.027 888.506 152.391V139.055H894.315V151.355C894.324 152.591 894.656 153.568 895.31 154.286C895.965 155.005 896.842 155.364 897.942 155.364C898.642 155.364 899.297 155.205 899.906 154.886C900.515 154.559 901.006 154.077 901.378 153.441C901.76 152.805 901.947 152.018 901.938 151.082ZM912.393 167.855V139.055H918.12V142.573H918.38C918.634 142.009 919.002 141.436 919.484 140.855C919.975 140.264 920.611 139.773 921.393 139.382C922.184 138.982 923.166 138.782 924.339 138.782C925.866 138.782 927.275 139.182 928.566 139.982C929.857 140.773 930.889 141.968 931.661 143.568C932.434 145.159 932.82 147.155 932.82 149.555C932.82 151.891 932.443 153.864 931.689 155.473C930.943 157.073 929.925 158.286 928.634 159.114C927.352 159.932 925.916 160.341 924.325 160.341C923.198 160.341 922.239 160.155 921.448 159.782C920.666 159.409 920.025 158.941 919.525 158.377C919.025 157.805 918.643 157.227 918.38 156.645H918.202V167.855H912.393ZM918.08 149.527C918.08 150.773 918.252 151.859 918.598 152.786C918.943 153.714 919.443 154.436 920.098 154.955C920.752 155.464 921.548 155.718 922.484 155.718C923.43 155.718 924.23 155.459 924.884 154.941C925.539 154.414 926.034 153.686 926.37 152.759C926.716 151.823 926.889 150.745 926.889 149.527C926.889 148.318 926.72 147.255 926.384 146.336C926.048 145.418 925.552 144.7 924.898 144.182C924.243 143.664 923.439 143.405 922.484 143.405C921.539 143.405 920.739 143.655 920.084 144.155C919.439 144.655 918.943 145.364 918.598 146.282C918.252 147.2 918.08 148.282 918.08 149.527Z" fill="black"/>
<path d="M689.27 131.282C690.143 131.648 690.952 132.153 691.666 132.775C691.83 132.919 691.99 133.069 692.145 133.225C692.967 134.058 693.62 135.046 694.065 136.133C694.511 137.221 694.74 138.386 694.74 139.564C694.74 140.626 694.553 141.679 694.189 142.673H694.74C695.903 142.673 697.055 142.905 698.13 143.356C699.004 143.722 699.812 144.226 700.526 144.849C700.691 144.992 700.851 145.142 701.005 145.299C701.828 146.131 702.48 147.119 702.926 148.207C703.371 149.294 703.6 150.46 703.6 151.637C703.6 152.814 703.371 153.979 702.926 155.067C702.48 156.154 701.828 157.142 701.005 157.975C700.851 158.131 700.691 158.281 700.526 158.425C699.812 159.047 699.004 159.552 698.13 159.918C697.055 160.368 695.903 160.6 694.74 160.6H688.953C687.356 160.6 686.06 159.29 686.06 157.673C686.06 156.057 687.356 154.746 688.953 154.746H694.74L694.74 154.747C695.143 154.747 695.543 154.667 695.916 154.51C696.289 154.354 696.628 154.125 696.914 153.836C697.199 153.547 697.426 153.204 697.58 152.827C697.735 152.45 697.814 152.045 697.814 151.637C697.814 151.228 697.735 150.824 697.58 150.446C697.426 150.069 697.199 149.726 696.914 149.437C696.628 149.148 696.289 148.919 695.916 148.763C695.543 148.607 695.143 148.526 694.74 148.526V148.527H680.093C678.495 148.527 677.2 147.217 677.2 145.6C677.2 143.984 678.495 142.673 680.093 142.673H685.946C686.327 142.665 686.704 142.585 687.056 142.437C687.429 142.281 687.768 142.052 688.054 141.763C688.339 141.474 688.566 141.131 688.72 140.754C688.875 140.376 688.954 139.972 688.954 139.564C688.954 139.155 688.875 138.751 688.72 138.373C688.566 137.996 688.339 137.653 688.054 137.364C687.768 137.075 687.429 136.846 687.056 136.69C686.683 136.533 686.283 136.453 685.879 136.453V136.454H680.093C678.495 136.454 677.2 135.143 677.2 133.527C677.2 131.91 678.495 130.6 680.093 130.6H685.879C687.043 130.6 688.195 130.832 689.27 131.282Z" fill="black"/>
<path d="M677.2 157.673C677.2 156.057 678.495 154.746 680.093 154.746H681.72C683.318 154.746 684.614 156.057 684.614 157.673C684.614 159.29 683.318 160.6 681.72 160.6H680.093C678.495 160.6 677.2 159.29 677.2 157.673Z" fill="black"/>
</svg>
