<svg width="72" height="72" viewBox="0 0 72 72" fill="none" xmlns="http://www.w3.org/2000/svg">
<rect width="72" height="72" fill="#FDE200"/>
<path fill-rule="evenodd" clip-rule="evenodd" d="M54.7315 19.5314C55.3562 18.9066 55.3562 17.8935 54.7315 17.2687C54.1066 16.6438 53.0934 16.6438 52.4685 17.2687L46.185 23.5524C43.0609 22.2935 39.6403 21.6001 36 21.6001C25.7852 21.6001 17.3004 27.0605 12.2432 35.1521C11.9189 35.6709 11.9189 36.3293 12.2432 36.8481C14.8894 41.082 18.474 44.5956 22.754 46.9834L17.2686 52.4685C16.6438 53.0935 16.6438 54.1066 17.2686 54.7316C17.8935 55.3562 18.9065 55.3562 19.5314 54.7316L25.8151 48.4477C28.9391 49.7066 32.3597 50.4001 36 50.4001C46.2147 50.4001 54.6995 44.9396 59.7568 36.8481C60.081 36.3293 60.081 35.6709 59.7568 35.1521C57.1107 30.9181 53.5261 27.4046 49.2461 25.0167L54.7315 19.5314ZM43.6937 26.0436C41.2906 25.2356 38.7123 24.8001 36 24.8001C27.3691 24.8001 20.0945 29.2102 15.5079 36.0001C17.9931 39.6791 21.2675 42.6595 25.1192 44.618L43.6937 26.0436ZM28.3063 45.9565L46.881 27.382C50.7325 29.3407 54.007 32.321 56.4922 36.0001C51.9056 42.7899 44.6307 47.2001 36 47.2001C33.2877 47.2001 30.7094 46.7645 28.3063 45.9565Z" fill="black"/>
</svg>
